<svg fill="none" height="32" viewBox="0 0 32 32" width="32" xmlns="http://www.w3.org/2000/svg"><path d="m4.98084 7.03717-4.98084-4.89922 2.16092-2.13795 4.96552 4.87814h23.35636-.0154c.8429-.01506 1.5326.66246 1.5326 1.49054 0 .13551-.0306.28607-.0766.42157l-3.6782 12.04475h-.0153c-.1992.6324-.7969 1.069-1.4713 1.069h-18.78925v3.0112h16.85825v3.0112h-18.39082-.01532c-.85824-.015-1.53257-.6775-1.53257-1.5206v-.0015-17.44843zm3.06514.87325v9.03358h17.64292l2.7586-9.03358h-20.41685zm-.76629 24.08958h-.01532c-1.27203-.0151-2.29885-1.0238-2.29885-2.2584 0-1.2496 1.02682-2.2584 2.29885-2.2584h-.01533c1.25671-.0151 2.29885 1.0088 2.29885 2.2584 0 1.2346-1.04214 2.2584-2.29885 2.2584zm18.39081 0h-.0153c-1.2721-.0151-2.2989-1.0238-2.2989-2.2584 0-1.2496 1.0268-2.2584 2.2989-2.2584h-.0154c1.2568-.0151 2.2989 1.0088 2.2989 2.2584 0 1.2346-1.0421 2.2584-2.2989 2.2584z" fill="#fff"/></svg>