<svg fill="none" height="57" viewBox="0 0 57 57" width="57" xmlns="http://www.w3.org/2000/svg"><path d="m18.0502 3.80078c-2.6234 0-4.75 2.12665-4.75 4.75 0 2.62332 2.1266 4.75002 4.75 4.75002 2.6233 0 4.75-2.1267 4.75-4.75002 0-2.62335-2.1267-4.75-4.75-4.75zm26.6 1.9c-2.6234 0-4.75 2.12665-4.75 4.75002 0 2.6233 2.1266 4.75 4.75 4.75 2.6233 0 4.75-2.1267 4.75-4.75 0-2.62337-2.1267-4.75002-4.75-4.75002zm-10.45 5.70002c-.19.0003-.3789.029-.5604.0853l-22.0318 5.7149c-.739.2005-1.3663.69-1.74042 1.3582l-.00743.0074-3.61074 5.3994.00371.0037c-.35801.4875-.55166 1.0763-.55292 1.6811 0 1.574 1.27598 2.85 2.84999 2.85.32261-.0017.64259-.0582.94629-.167l.00372.0037 5.9041-2.1857-5.3697 5.2843-4.26019 17.4414c-.04899.1701-.07397.3463-.07421.5233 0 1.0493.85065 1.9 1.89999 1.9.72355-.0006 1.38395-.4121 1.70332-1.0613.00125-.0038.00249-.0075.00371-.0112.05033-.1025.09132-.2093.12246-.3191 0-.0013 0-.0025 0-.0037l5.81502-15.2965 2.9948 4.9578.7681 9.9973h.0037c.0846.9808.9044 1.7346 1.8889 1.7367 1.0493 0 1.9-.8507 1.9-1.9v-11.4c-.0012-.2717-.0607-.54-.1744-.7867l-.0111-.0223-2.3973-5.6889 1.9-12.0308 12.6431-4.3567c.7962-.2457 1.3393-.9814 1.3397-1.8146 0-1.0494-.8507-1.9-1.9-1.9zm5.7 5.7c-.8786.0011-1.7297.3067-2.4084.8646l-6.4236 4.108-6.9284 2.7127-.0111.0037c-.0708.0232-.1402.0504-.2078.0817-.6809.3062-1.1193.9827-1.1207 1.7293 0 1.0493.8507 1.9 1.9 1.9.1246-.0002.2489-.0126.3711-.0371h.0074c.0805-.0171.1599-.0394.2375-.0668l7.6854-2.1301 4.249-2.6422c.0012.0012.0025.0025.0037.0037.0074.0062.0148.0124.0223.0186l-3.3213 6.6982-3.3362 6.7688-.0037.0148c-.0998.1915-.1664.3985-.1967.6123l-1.8703 11.2293h.0037c-.0336.141-.0511.2855-.0519.4305 0 1.0493.8507 1.9 1.9 1.9.9084-.001 1.689-.6448 1.8629-1.5364h.0037l2.876-10.6132 2.631-4.0561 6.0526 14.9848c.2813.7351.9867 1.2206 1.7738 1.2209 1.0493 0 1.9-.8507 1.9-1.9-.0005-.2243-.0407-.4466-.1188-.6569l-3.5402-14.4095.6309-2.0336-2.5198-4.6424 7.5704 4.2564c.3873.2528.84.3869 1.3025.386 1.3117 0 2.375-1.0633 2.375-2.375-.0005-.3826-.0934-.7595-.2709-1.0985l-.0186-.0408c0-.0012 0-.0025 0-.0037l-3.6961-7.9377-.0037-.0037c-.3257-.859-1.0455-1.5084-1.9334-1.7441l-.0037-.0038-5.8744-1.681h-.0037c-.4723-.2041-.981-.3101-1.4955-.3117z" fill="#f8b833"/></svg>