<svg fill="none" height="57" viewBox="0 0 57 57" width="57" xmlns="http://www.w3.org/2000/svg"><path d="m28.5002 4.56055c-3.143 0-5.7 2.55702-5.7 5.69995 0 3.143 2.557 5.7 5.7 5.7s5.7-2.557 5.7-5.7c0-3.14293-2.557-5.69995-5.7-5.69995zm0 2.28c1.8856 0 3.42 1.53444 3.42 3.41995 0 1.8856-1.5344 3.42-3.42 3.42-1.8855 0-3.42-1.5344-3.42-3.42 0-1.88551 1.5345-3.41995 3.42-3.41995zm14.3702.69914c-.9666-.05871-1.9551.31492-2.6741 1.10437l-7.6838 9.59644h-7.1473l-12.8228-6.8288c-1.4763-.8596-3.37992-.4208-4.3284 1.0019-.48564.7285-.65324 1.6009-.47426 2.4582.17898.8561.68188 1.5887 1.41832 2.0618l13.64214 8.7704v6.0852l-1.7434 7.4144-4.8361 7.7151c-.7068 1.1286-.7431 2.4965-.1002 3.6604.6453 1.1651 1.8258 1.8614 3.1573 1.8614 1.1366 0 2.2196-.5463 2.8968-1.4606l5.4372-7.3432c.7912-1.067 1.3609-2.2625 1.6722-3.4846l1.2357-3.8252 1.0821-.216 3.6783 3.1261-.8416 7.5726c-.1938 1.7533.9506 3.3988 2.6629 3.8274.9565.2372 1.978.0639 2.801-.4764.8231-.5404 1.3878-1.409 1.5497-2.3803l1.5631-9.376c.2417-1.4501-.2351-2.9359-1.2736-3.9744l-5.2614-5.2614v-3.7317l8.8551-12.7894c1.0191-1.4717.6567-3.50389-.8105-4.53103-.5015-.35098-1.0744-.54146-1.6543-.57668zm-.325 2.27109c.2305-.02551.4684.03008.6702.17144.4423.30898.5527.92138.2449 1.36488l-9.2603 13.3772v5.3883l5.9294 5.9293c.5198.5187.7564 1.2611.6367 1.9861l-1.563 9.3783c-.0581.3511-.2546.6534-.5522.8483-.2975.1949-.6521.2547-.9975.1692-.6099-.1516-1.018-.7401-.9485-1.3649l.9752-8.7748-5.4417-4.6268-3.4779.6969-1.6654 5.1634c-.2565 1.002-.6993 1.9332-1.3137 2.7631l-5.4373 7.3432c-.5415.7308-1.7876.6477-2.2265-.1469-.236-.4275-.2233-.9321.0378-1.3471l5.0343-8.0334 1.8614-7.9155.0289-7.7239-14.6886-9.4406c-.2178-.1391-.3684-.3559-.42084-.6101-.05358-.2542-.00336-.5149.14024-.7303.1802-.2702.4781-.4186.7927-.4186.1767 0 .3567.0455.5277.1447l13.3638 7.1183h8.8128l8.3184-10.3958c.1664-.18181.3884-.28842.619-.31392zm4.3529 5.02762c-.437-.0819-.8993.0979-1.16.492l-6.9781 10.5473v2.6228c0 .6293.5096 1.14 1.14 1.14s1.14-.5107 1.14-1.14v-1.9371l6.5995-9.9727c.3477-.5256.205-1.2332-.3206-1.5809-.1317-.0872-.2752-.1442-.4208-.1714zm-37.65563 5.6888c-.44123-.0475-.88859.1668-1.11773.5789-.30552.5507-.10753 1.2442.44309 1.5497l9.67217 5.3749v3.8898c0 .6293.5096 1.14 1.14 1.14s1.14-.5107 1.14-1.14v-5.2302l-10.8478-6.025c-.13708-.0767-.28265-.1222-.42973-.1381z" fill="#f8b833"/></svg>