<svg fill="none" height="57" viewBox="0 0 57 57" width="57" xmlns="http://www.w3.org/2000/svg"><path d="m28.4996 3.41992c-3.1346 0-5.7 2.56548-5.7 5.7 0 3.13448 2.5654 5.69998 5.7 5.69998 3.1345 0 5.7-2.5655 5.7-5.69998 0-3.13452-2.5655-5.7-5.7-5.7zm0 2.28c1.9023 0 3.42 1.51769 3.42 3.42 0 1.90228-1.5177 3.41998-3.42 3.41998-1.9024 0-3.42-1.5177-3.42-3.41998 0-1.90231 1.5176-3.42 3.42-3.42zm-5.13 10.25998c-3.4478 0-6.27 2.8235-6.27 6.27v11.97h-4.56v-6.84c.0042-.3081-.1165-.6048-.3346-.8225-.2182-.2177-.5151-.3379-.8233-.3331-.6287.0099-1.1308.5269-1.1221 1.1556v15.96c-.0059.4111.2101.7936.5652 1.0008.3552.2073.7944.2073 1.1495 0 .3551-.2072.5711-.5897.5653-1.0008v-6.84h4.7737c.4758 1.3194 1.7321 2.28 3.2063 2.28 1.4741 0 2.7304-.9606 3.2062-2.28h9.5475c.4758 1.3194 1.7321 2.28 3.2063 2.28 1.4741 0 2.7304-.9606 3.2062-2.28h4.7738v6.84c-.0059.4111.2101.7936.5652 1.0008.3552.2073.7943.2073 1.1495 0 .3551-.2072.5711-.5897.5652-1.0008v-15.96c.0043-.3081-.1164-.6048-.3346-.8225-.2181-.2177-.515-.3379-.8232-.3331-.6287.0099-1.1308.5269-1.1222 1.1556v6.84h-4.56v-11.97c0-3.4465-2.8222-6.27-6.27-6.27zm0 2.28h10.26c2.2112 0 3.99 1.7799 3.99 3.99v13.11c0 .6442-.4959 1.14-1.14 1.14-.6442 0-1.14-.4958-1.14-1.14v-11.4c.0058-.4111-.2102-.7935-.5653-1.0008-.3551-.2072-.7943-.2072-1.1494 0-.3552.2073-.5712.5897-.5653 1.0008v10.26h-9.12v-10.26c.0058-.4111-.2102-.7935-.5653-1.0008-.3551-.2072-.7943-.2072-1.1494 0-.3552.2073-.5712.5897-.5653 1.0008v11.4c0 .6442-.4959 1.14-1.14 1.14-.6442 0-1.14-.4958-1.14-1.14v-13.11c0-2.2101 1.7787-3.99 3.99-3.99zm-16.54786 7.9644c-.62873.0099-1.13079.5269-1.12219 1.1556v6.84h-1.14c-.41112-.0058-.79353.2102-1.00079.5653-.20725.3551-.20725.7943 0 1.1494.20726.3551.58967.5711 1.00079.5653h1.14v6.84c-.00581.4111.21019.7935.5653 1.0008s.7943.2073 1.14941 0c.3551-.2073.57111-.5897.56529-1.0008v-7.7885c.02035-.1231.02035-.2487 0-.3718v-7.7997c.00422-.3081-.11648-.6048-.3346-.8226-.21812-.2177-.51508-.3378-.82321-.333zm43.31996 0c-.6287.0099-1.1308.5269-1.1221 1.1556v7.7885c-.0204.1231-.0204.2488 0 .3719v7.7996c-.0059.4111.2101.7936.5652 1.0008.3552.2073.7944.2073 1.1495 0 .3551-.2072.5711-.5897.5653-1.0008v-6.84h1.14c.4111.0058.7935-.2102 1.0007-.5653.2073-.3551.2073-.7943 0-1.1494-.2072-.3551-.5896-.5711-1.0007-.5653h-1.14v-6.84c.0042-.3081-.1165-.6048-.3346-.8225-.2182-.2177-.5151-.3379-.8233-.3331zm-24.8751 12.5556-2.4915 11.6383c-.1289.6053-.7849 1.0015-1.3538.8772-.6144-.1322-1.0073-.7381-.875-1.3537l1.9861-9.267c-.6293.2383-1.3026.3852-2.0128.3852-.1357 0-.263-.0309-.3964-.0401l-1.8079 8.4432c-.1904.8937-.0251 1.8089.472 2.5761.4959.7672 1.2615 1.2936 2.1553 1.4851.2337.0502.4752.0757.7192.0757 1.6005 0 3.0057-1.1367 3.342-2.703l2.5962-12.117zm4.1325 0 2.5962 12.117c.3351 1.5663 1.7415 2.703 3.342 2.703.244 0 .4866-.0255.7192-.0757.8938-.1915 1.6572-.7179 2.1531-1.4851.497-.7672.6658-1.6824.4743-2.5761l-1.8102-8.4432c-.1323.0092-.2585.0401-.3941.0401-.7103 0-1.3836-.1458-2.0106-.3852l1.9861 9.267c.1322.6144-.2617 1.2204-.8773 1.3537-.5643.1243-1.2238-.2708-1.3538-.8772l-2.4915-11.6383z" fill="#f8b833"/></svg>