<svg fill="none" height="57" viewBox="0 0 57 57" width="57" xmlns="http://www.w3.org/2000/svg"><path d="m17.0624 5.72266c-2.6234 0-4.75 2.12664-4.75 4.75004 0 2.6233 2.1266 4.75 4.75 4.75 2.6233 0 4.75-2.1267 4.75-4.75 0-2.6234-2.1267-4.75004-4.75-4.75004zm24.7371 7.57774c-2.0807 0-3.7317.5751-5.0357 1.2877-1.3041.7126-2.2867 1.4797-3.4698 2.0967-.6021.3141-.9908.9256-1.0197 1.6041s.3064 1.3208.8796 1.685 1.2972.3948 1.8991.0804c1.5206-.7929 2.5821-1.6105 3.5328-2.1301.9508-.5195 1.7642-.8238 3.2137-.8238 1.0834 0 2.1408.6347 3.6107 1.592 1.47.9573 3.356 2.208 5.8893 2.208.6852.0097 1.3225-.3503 1.668-.9422.3454-.5918.3454-1.3238 0-1.9156-.3455-.5919-.9828-.9519-1.668-.9422-1.2667 0-2.3674-.6493-3.8149-1.592s-3.2383-2.208-5.6851-2.208zm-30.4371 1.9223c-2.20778.0012-4.12364 1.5234-4.62384 3.6738l-2.74609 9.1994.00742.0037c-.47961 1.6128-.07025 3.3589 1.07617 4.5904l-.00742.0038.2041.1929c.03415.0327.06879.0649.10391.0965l5.72595 5.3957-4.99861 7.9525c-.44654.5722-.52809 1.3488-.21014 2.0013s.97984 1.0668 1.70565 1.0677c.69558-.0015 1.33472-.383 1.66621-.9945l7.12869-9.4815c.8648-.9903.94-2.4437.1819-3.5179v-.0075l-3.3362-5.0506 2.1412-7.3216 5.6369 1.5771c.3964.1453.8299.1544 1.2321.026l5.9449-1.9c.6702-.1867 1.1847-.7247 1.3414-1.4025s-.0696-1.387-.5898-1.8489-1.2512-.6026-1.9057-.3668l-5.1285 1.6365-7.8486-4.7017c-.0612-.0369-.1244-.0704-.1893-.1002-.7533-.4715-1.6237-.7222-2.5123-.7236zm7.3291 11.2478-1.1764.2041-1.0242 2.9799 5.533 2.4789c.2527.114.5153.167.7756.167.7258 0 1.4213-.4195 1.7367-1.1244.4256-.9595-.0035-2.0811-.9611-2.5086zm11.708 2.0299c-.6852-.0097-1.3226.3503-1.668.9421-.3454.5919-.3454 1.3239 0 1.9157.3454.5919.9828.9519 1.668.9422 3.1667 0 5.6184 1.5952 8.743 3.518 3.1245 1.9228 6.9003 4.082 12.157 4.082.6852.0097 1.3225-.3503 1.668-.9422.3454-.5918.3454-1.3238 0-1.9157-.3455-.5918-.9828-.9518-1.668-.9421-4.2433 0-7.1175-1.6408-10.168-3.518-3.0504-1.8772-6.2987-4.082-10.732-4.082zm-12.5356 13.3111-3.1914 4.108.5567 1.9112c.1602.9076.9487 1.5693 1.8703 1.5697.5814.0009 1.1313-.2645 1.4923-.7203s.4935-1.0518.3595-1.6176z" fill="#f8b833"/></svg>