<svg fill="none" height="57" viewBox="0 0 57 57" width="57" xmlns="http://www.w3.org/2000/svg" xmlns:xlink="http://www.w3.org/1999/xlink"><clipPath id="a"><path d="m0 0h57v57h-57z"/></clipPath><g clip-path="url(#a)"><path d="m28.4996 9.12109c-3.7629 0-6.84 3.07711-6.84 6.84001 0 2.3869 1.2335 4.511 3.0993 5.7356-3.1038.5299-5.5441 1.4918-5.7356 1.5675-.0089.0045-.1781.0356-.1781.0356-.1024.0446-.2004.1069-.285.1782-.0356.0222-.0713.0445-.1069.0712-1.4205.472-2.4893 1.4696-3.0994 2.8144-.1736.1247-.3117.2983-.3918.4987l-3.6338 9.4763c-.3251.285-5.31258 4.6758-6.48375 5.6287-1.81687 1.4829-1.76789 4.1637-.17812 5.5932.76593.6902 1.77679.9841 2.74312.855.96633-.1292 1.8525-.6101 2.70755-1.2825.5343-.4231 1.986-1.5453 3.3487-2.6363s2.565-2.0484 3.0638-2.5294c.7703-.7392 1.3314-1.5541 1.71-2.28.0489-.0935.5076-.9752.7125-1.3537v3.705c0-.0312-.0579.1603-.3207.4631-.2627.3028-.6858.6858-1.2112 1.0688-1.0554.7659-2.4314 1.5407-3.5625 2.2443-1.3627.8461-2.6541 1.572-3.6694 2.4938-1.01531.9218-1.78125 2.182-1.78125 3.705 0 1.7501 1.01086 3.1483 2.28005 3.9187 1.2691.7704 2.7832 1.0688 4.2037 1.0688h24.5456c.9129 0 2.9881-.0045 4.9519-.4988.9797-.2493 1.9727-.6279 2.7788-1.2825.806-.6546 1.425-1.6832 1.425-2.8856 0-1.3805-.6279-2.5472-1.4607-3.42-.8327-.8728-1.8614-1.5363-2.9212-2.2444-2.0262-1.3493-3.6917-2.4002-4.7738-3.2418-.5432-.4186-.9262-.7971-1.14-1.0688-.2137-.2716-.2493-.3696-.2493-.3919v-3.5981c.1959.3696.6679 1.2291.7125 1.3181.3785.7259.9396 1.5408 1.71 2.28.4987.481 1.7011 1.4384 3.0637 2.5294 1.3627 1.091 2.7788 2.2132 3.3131 2.6363.855.6724 1.7768 1.1489 2.7432 1.2825.9663.1336 1.9771-.1648 2.7431-.855 1.5897-1.4295 1.6387-4.1103-.1781-5.5932-1.1712-.9529-6.1587-5.3437-6.4838-5.6287l-3.6337-9.4763c-.0802-.2004-.2182-.374-.3919-.4987-.6769-1.4918-1.9282-2.614-3.5625-2.9925l.0356-.0713c-.5967-.2271-3.0148-1.1043-5.9137-1.6031 1.8792-1.2201 3.135-3.3398 3.135-5.7356 0-3.7629-3.0772-6.84001-6.84-6.84001zm0 2.28001c2.5338 0 4.56 2.0262 4.56 4.56s-2.0262 4.56-4.56 4.56c-2.5339 0-4.56-2.0262-4.56-4.56s2.0261-4.56 4.56-4.56zm0 12.2194c3.7539 0 8.0779 1.5407 8.7993 1.8168.0579.0268.1158.0535.1782.0713 1.1221.2137 2.0217 1.0198 2.3512 2.1019.0267.0757.0623.1469.1069.2137l.0356.1069c.0223.0267.0445.049.0713.0712l3.5981 9.4407c.0712.1647.1826.3117.3206.4275 0 0 5.3393 4.7381 6.7331 5.8781.7838.6412.6992 1.6387.1425 2.1375-.3072.2761-.5566.3028-.9618.2494-.4053-.0535-.9664-.285-1.6032-.7838-.5343-.423-1.9549-1.5541-3.3131-2.6362s-2.7698-2.24-2.9212-2.3869c-.5344-.5166-.9708-1.1801-1.2469-1.71-.2672-.5121-1.8971-3.5135-2.8856-5.3438-.2494-.4497-.7749-.6813-1.2736-.5521-.5032.1246-.855.57-.8639 1.0865v8.1581c0 .7081.3428 1.3048.7481 1.8169.4052.5121.9129.9441 1.5319 1.425 1.2379.9574 2.8767 2.0128 4.8806 3.3488 1.0643.708 1.995 1.327 2.565 1.9237s.8194 1.0866.8194 1.8525c0 .521-.1604.8105-.57 1.14-.4097.3295-1.0955.619-1.8882.8194-1.5808.4008-3.5313.4275-4.4175.4275h-13.8225c-.4408 0-1.848-.147-2.9212-.57-.5389-.2093-1.0109-.5121-1.2825-.7838-.2717-.2716-.3563-.472-.3563-.8193 0-.3607.0624-.5522.2494-.7838s.5388-.4765 1.0331-.7125c.9931-.4676 2.5784-.8238 4.4175-1.14 4.7114-.806 8.0513-1.3537 8.0513-1.3537.4275-.0312.8015-.3029.9663-.6992s.0935-.855-.187-1.1801c-.2806-.325-.717-.4675-1.1356-.3651 0 0-3.3621.5433-8.0868 1.3537-1.8882.3251-3.6204.6546-5.0232 1.3182-.7036.3295-1.3359.7525-1.8168 1.3537-.481.6012-.7482 1.3805-.7482 2.2088 0 .8594.3696 1.5942.855 2.1731h-4.7381c-1.0687 0-2.2132-.2717-2.9925-.7481-.7793-.4765-1.2112-1.0109-1.2112-1.9594 0-.8372.2939-1.3226 1.0331-1.995s1.9193-1.3805 3.3131-2.2444c1.0688-.6635 2.5294-1.4695 3.7406-2.3512.6057-.4409 1.1534-.904 1.6032-1.425.4497-.5211.855-1.1534.855-1.9594v-8.2294c.0267-.5433-.3385-1.0331-.8684-1.1623-.5299-.1291-1.0732.1336-1.3048.6279-.9886 1.8303-2.5872 4.8361-2.85 5.3438-.2761.5299-.7481 1.1934-1.2825 1.71-.1514.1469-1.5274 1.3048-2.8856 2.3869s-2.77875 2.2132-3.31312 2.6362c-.6368.4988-1.19789.7303-1.60313.7838-.40523.0534-.6546.0267-.96187-.2494-.55219-.4988-.67688-1.4963.10687-2.1375 1.39383-1.1356 6.76875-5.8781 6.76875-5.8781.1381-.1158.2494-.2628.3206-.4275l3.6338-9.5119c.0133-.0134.0222-.0223.0356-.0356.0624-.0891.1069-.1826.1425-.285.3295-1.0777 1.2113-1.8837 2.3156-2.1019.1158-.0312.2227-.0802.3207-.1425.0356-.0089.0712-.0223.1068-.0356.3741-.1425 4.6135-1.71 8.5857-1.71z" fill="#f8b833"/></g></svg>